<svg xmlns="http://www.w3.org/2000/svg"  viewBox="0 0 100 100" width="500px" height="500px"><path fill="#c8ede6" d="M87.234,55.551c0.3-0.616,0.566-1.264,0.796-1.943c2.633-7.77-1.349-17.078-9.733-19.325 C77.391,22.9,69.391,15.09,60.356,13.758c-10.341-1.525-19.814,5.044-22.966,15.485c-3.799-1.346-7.501-1.182-10.99,0.857 c-1.583,0.732-3.031,1.812-4.33,3.233c-1.907,2.086-3.147,4.719-3.652,7.495c-0.748,0.118-1.483,0.236-2.176,0.484 c-4.04,1.449-6.589,4.431-7.288,8.923c-0.435,2.797,0.443,5.587,0.933,6.714c1.935,4.455,6.422,6.98,10.981,6.312 c0.227-0.033,0.557,0.069,0.752,0.233c0.241,7.12,3.698,13.417,8.884,17.014c8.321,5.772,19.027,3.994,25.781-3.921 c2.894,2.96,6.338,4.398,10.384,3.876c4.023-0.519,7.147-2.739,9.426-6.349c1.053,0.283,2.051,0.691,3.083,0.804 c4.042,0.442,7.297-1.184,9.732-4.8c0.083-0.124,0.203-0.219,0.306-0.328c0.348-0.798,0.696-1.596,1.044-2.394 c0.155-1.211,0.429-2.423,0.443-3.632C90.742,60.508,89.411,57.54,87.234,55.551z"/><path fill="#fdfcef" d="M71.507,36.423c0,0-11.691,0-11.762,0c-2.7,0-4.888-2.189-4.888-4.889 c0-2.355,1.666-4.321,3.884-4.784c-0.026-0.206-0.043-0.415-0.043-0.628c0-2.796,2.267-5.063,5.063-5.063 c1.651,0,3.113,0.794,4.037,2.017c0.236-3.113,3.017-5.514,6.27-5.116c2.379,0.291,4.346,2.13,4.784,4.486 c0.14,0.756,0.126,1.489-0.014,2.177c0.638-0.687,1.546-1.119,2.557-1.119c1.85,0,3.361,1.441,3.48,3.261 c0.84-0.186,1.754-0.174,2.717,0.188c1.84,0.691,3.15,2.423,3.227,4.387c0.109,2.789-2.12,5.085-4.885,5.085 c-0.21,0-0.948,0-1.118,0H74.665"/><path fill="#472b29" d="M59.745,36.923h11.762c0.276,0,0.5-0.224,0.5-0.5s-0.224-0.5-0.5-0.5H59.745 c-2.42,0-4.389-1.969-4.389-4.389c0-2.066,1.466-3.873,3.486-4.295c0.255-0.053,0.426-0.293,0.394-0.552 c-0.023-0.186-0.039-0.374-0.039-0.565c0-2.517,2.047-4.563,4.562-4.563c1.438,0,2.765,0.663,3.638,1.818 c0.125,0.166,0.338,0.237,0.54,0.178c0.199-0.059,0.342-0.234,0.357-0.441c0.104-1.377,0.779-2.671,1.85-3.549 c1.083-0.888,2.456-1.282,3.86-1.109c2.166,0.266,3.956,1.943,4.353,4.081c0.124,0.667,0.12,1.335-0.013,1.986 c-0.044,0.22,0.062,0.442,0.262,0.544c0.2,0.104,0.443,0.06,0.595-0.104c0.575-0.618,1.353-0.959,2.19-0.959 c1.569,0,2.878,1.228,2.981,2.794c0.01,0.146,0.082,0.279,0.199,0.366c0.117,0.089,0.268,0.12,0.408,0.089 c0.841-0.185,1.637-0.132,2.433,0.167c1.669,0.627,2.835,2.209,2.903,3.938c0.047,1.207-0.387,2.35-1.221,3.218 c-0.835,0.869-1.959,1.348-3.164,1.348H74.661c-0.276,0-0.5,0.224-0.5,0.5s0.224,0.5,0.5,0.5h11.271 c1.479,0,2.858-0.588,3.884-1.654c1.025-1.066,1.558-2.469,1.5-3.95c-0.083-2.126-1.51-4.069-3.55-4.835 c-0.8-0.301-1.626-0.398-2.468-0.299c-0.377-1.822-1.998-3.182-3.905-3.182c-0.684,0-1.354,0.18-1.944,0.51 c0-0.386-0.035-0.772-0.106-1.159c-0.477-2.562-2.621-4.573-5.215-4.891c-1.679-0.205-3.32,0.266-4.616,1.328 c-1.003,0.823-1.716,1.951-2.038,3.193c-1.012-0.916-2.319-1.426-3.714-1.426c-3.067,0-5.562,2.496-5.562,5.563 c0,0.083,0.002,0.166,0.007,0.248c-2.254,0.673-3.848,2.776-3.848,5.164C54.356,34.507,56.773,36.923,59.745,36.923z"/><path fill="#fdfcef" d="M74.34,25.655c1.808-0.119,3.365,1.13,3.476,2.789c0.014,0.206,0.005,0.409-0.025,0.606 c0.349-0.394,0.865-0.661,1.458-0.7c1.085-0.071,2.022,0.645,2.158,1.62c0.197-0.054,0.403-0.09,0.616-0.104 c1.582-0.104,2.944,0.989,3.042,2.441"/><path fill="#472b29" d="M85.064,32.556c0.006,0,0.012,0,0.017-0.001c0.138-0.009,0.242-0.128,0.233-0.266 c-0.107-1.587-1.588-2.789-3.308-2.674c-0.137,0.009-0.273,0.026-0.409,0.053c-0.274-0.968-1.256-1.645-2.366-1.567 c-0.425,0.027-0.823,0.159-1.164,0.382c0-0.019-0.002-0.037-0.003-0.056c-0.12-1.795-1.787-3.16-3.742-3.021 c-0.138,0.009-0.242,0.128-0.233,0.266c0.009,0.138,0.124,0.255,0.266,0.232c1.651-0.105,3.108,1.037,3.21,2.557 c0.012,0.184,0.004,0.37-0.023,0.553c-0.017,0.109,0.041,0.217,0.141,0.264s0.219,0.022,0.293-0.061 c0.323-0.365,0.78-0.584,1.287-0.617c0.951-0.034,1.775,0.556,1.894,1.404c0.01,0.071,0.05,0.135,0.11,0.175 c0.06,0.039,0.133,0.051,0.204,0.032c0.187-0.051,0.377-0.083,0.567-0.097c1.44-0.092,2.687,0.896,2.775,2.209 C84.824,32.455,84.934,32.556,85.064,32.556z"/><path fill="#fdfcef" d="M57.765,27.323c1.699-0.801,3.664-0.234,4.389,1.267c0.09,0.186,0.157,0.379,0.201,0.574"/><path fill="#472b29" d="M62.355,29.414c0.018,0,0.037-0.002,0.056-0.006c0.134-0.031,0.219-0.165,0.188-0.3 c-0.049-0.217-0.123-0.428-0.219-0.627c-0.783-1.621-2.902-2.239-4.721-1.385c-0.125,0.06-0.179,0.208-0.12,0.333 c0.059,0.126,0.209,0.176,0.333,0.12c1.574-0.744,3.394-0.227,4.058,1.149c0.08,0.165,0.141,0.34,0.182,0.521 C62.138,29.336,62.241,29.414,62.355,29.414z"/><g><path fill="#fff" d="M84.405 63H74.5c-.276 0-.5-.224-.5-.5s.224-.5.5-.5h9.905c.276 0 .5.224.5.5S84.682 63 84.405 63zM87.5 63h-1c-.276 0-.5-.224-.5-.5s.224-.5.5-.5h1c.276 0 .5.224.5.5S87.777 63 87.5 63zM92.491 65H83.5c-.276 0-.5-.224-.5-.5s.224-.5.5-.5h8.991c.276 0 .5.224.5.5S92.767 65 92.491 65zM81.5 65h-1c-.276 0-.5-.224-.5-.5s.224-.5.5-.5h1c.276 0 .5.224.5.5S81.777 65 81.5 65zM78.5 65h-2c-.276 0-.5-.224-.5-.5s.224-.5.5-.5h2c.276 0 .5.224.5.5S78.777 65 78.5 65zM84.5 67h-2c-.276 0-.5-.224-.5-.5s.224-.5.5-.5h2c.276 0 .5.224.5.5S84.776 67 84.5 67zM87.5 58c-.177 0-.823 0-1 0-.276 0-.5.224-.5.5 0 .276.224.5.5.5.177 0 .823 0 1 0 .276 0 .5-.224.5-.5C88 58.224 87.776 58 87.5 58zM87.5 60c-.177 0-4.823 0-5 0-.276 0-.5.224-.5.5 0 .276.224.5.5.5.177 0 4.823 0 5 0 .276 0 .5-.224.5-.5C88 60.224 87.776 60 87.5 60zM92.5 62c-.177 0-2.823 0-3 0-.276 0-.5.224-.5.5 0 .276.224.5.5.5.177 0 2.823 0 3 0 .276 0 .5-.224.5-.5C93 62.224 92.776 62 92.5 62z"/></g><g><path fill="#fdfcef" d="M28.178,62.287c1.883,0,3.517,0,3.54,0c2.11,0,3.821-1.674,3.821-3.739 c0-1.802-1.302-3.305-3.035-3.66c0.02-0.158,0.034-0.317,0.034-0.48c0-2.139-1.772-3.873-3.957-3.873 c-1.29,0-2.433,0.607-3.155,1.543c-0.185-2.381-2.358-4.218-4.9-3.913c-1.859,0.223-3.397,1.629-3.739,3.431 c-0.11,0.578-0.098,1.139,0.011,1.665c-0.498-0.525-1.208-0.856-1.998-0.856c-1.446,0-2.627,1.102-2.72,2.494 c-0.657-0.142-1.371-0.133-2.123,0.143c-1.438,0.528-2.462,1.853-2.522,3.356c-0.085,2.133,1.657,3.889,3.818,3.889 c0.164,0,0.741,0,0.874,0h7.934 M21.701,62.287h0.36"/><path fill="#472b29" d="M31.718,62.788h-3.54c-0.276,0-0.5-0.224-0.5-0.5s0.224-0.5,0.5-0.5h3.54 c1.831,0,3.321-1.453,3.321-3.239c0-1.524-1.108-2.858-2.636-3.17c-0.256-0.053-0.429-0.294-0.396-0.554 c0.018-0.137,0.03-0.275,0.03-0.417c0-1.86-1.551-3.373-3.457-3.373c-1.092,0-2.098,0.491-2.76,1.349 c-0.126,0.164-0.341,0.231-0.539,0.174c-0.198-0.06-0.339-0.234-0.355-0.44c-0.079-1.02-0.565-1.944-1.369-2.604 c-0.829-0.68-1.885-0.979-2.973-0.853c-1.646,0.197-3.006,1.442-3.307,3.027c-0.094,0.495-0.091,0.99,0.009,1.472 c0.045,0.219-0.06,0.441-0.258,0.545c-0.197,0.102-0.44,0.063-0.594-0.1c-0.428-0.451-1.009-0.7-1.635-0.7 c-1.169,0-2.145,0.891-2.221,2.027c-0.01,0.146-0.082,0.278-0.198,0.366c-0.116,0.087-0.264,0.12-0.406,0.089 c-0.639-0.138-1.243-0.098-1.846,0.125c-1.262,0.463-2.144,1.631-2.195,2.905c-0.035,0.876,0.283,1.709,0.895,2.346 c0.635,0.66,1.496,1.024,2.423,1.024h8.807c0.276,0,0.5,0.224,0.5,0.5s-0.224,0.5-0.5,0.5h-8.807 c-1.185,0-2.331-0.485-3.144-1.331c-0.803-0.836-1.219-1.929-1.173-3.078c0.067-1.675,1.212-3.204,2.849-3.806 c0.61-0.225,1.24-0.304,1.88-0.244c0.344-1.396,1.629-2.424,3.135-2.424c0.493,0,0.977,0.113,1.414,0.323 c0.009-0.242,0.037-0.484,0.083-0.727c0.381-2.009,2.096-3.585,4.17-3.833c1.365-0.167,2.685,0.218,3.726,1.071 c0.748,0.613,1.278,1.409,1.546,2.302c0.791-0.648,1.786-1.007,2.842-1.007c2.458,0,4.457,1.962,4.457,4.373 c0,0.034,0,0.068-0.001,0.103c1.764,0.555,3.003,2.188,3.003,4.038C36.039,60.886,34.101,62.788,31.718,62.788z M22.061,62.788 h-0.36c-0.276,0-0.5-0.224-0.5-0.5s0.224-0.5,0.5-0.5h0.36c0.276,0,0.5,0.224,0.5,0.5S22.337,62.788,22.061,62.788z"/><g><path fill="#472b29" d="M30.011,56.984c-0.018,0-0.036-0.002-0.055-0.006c-0.135-0.03-0.22-0.164-0.189-0.299 c0.037-0.164,0.094-0.325,0.17-0.479c0.604-1.224,2.272-1.677,3.722-1.007c0.125,0.058,0.18,0.206,0.122,0.331 c-0.058,0.126-0.207,0.179-0.332,0.122c-1.201-0.556-2.577-0.208-3.063,0.774c-0.058,0.118-0.102,0.242-0.13,0.367 C30.229,56.905,30.126,56.984,30.011,56.984z"/></g><g><path fill="#472b29" d="M24.852,62.788h-1.107c-0.276,0-0.5-0.224-0.5-0.5s0.224-0.5,0.5-0.5h1.107 c0.276,0,0.5,0.224,0.5,0.5S25.129,62.788,24.852,62.788z"/></g></g><g><path fill="#a3a3cd" d="M35.387,74.902c-1.012,0-1.963-0.394-2.679-1.11c-0.745-0.744-1.138-1.733-1.109-2.785 c0.029-1.052,0.477-2.018,1.261-2.719l23.829-22.303l-0.218-0.396c-1.741-3.173-1.151-6.469,1.659-9.279 c2.671-2.669,6.805-4.462,10.291-4.462c1.944,0,3.536,0.563,4.602,1.628c3.34,3.34,1.18,10.878-2.835,14.892 c-1.757,1.757-3.658,2.647-5.649,2.647l0,0c-1.211,0-2.432-0.333-3.628-0.989l-0.396-0.218l-22.295,23.82 C37.494,74.441,36.464,74.902,35.387,74.902z"/><path fill="#472b29" d="M35.387,75.603c-1.198,0-2.325-0.468-3.174-1.315c-0.881-0.882-1.348-2.054-1.313-3.3 c0.034-1.245,0.564-2.39,1.494-3.221l23.421-21.922c-1.851-3.445-1.205-7.003,1.821-10.029c2.793-2.792,7.128-4.668,10.786-4.668 c2.134,0,3.896,0.634,5.097,1.833c3.675,3.675,1.493,11.556-2.834,15.883c-1.893,1.892-3.96,2.852-6.145,2.852 c-1.304,0-2.609-0.347-3.884-1.031L38.732,74.107C37.886,75.054,36.662,75.603,35.387,75.603z M68.422,32.548 c-3.312,0-7.248,1.711-9.796,4.258c-2.609,2.608-3.142,5.528-1.541,8.446l0.48,0.871L33.339,68.799 c-0.651,0.583-1.017,1.37-1.039,2.227c-0.024,0.858,0.297,1.665,0.903,2.271c1.206,1.206,3.35,1.146,4.497-0.135l22.678-24.229 l0.872,0.48c2.884,1.583,5.841,1.063,8.444-1.54c3.767-3.767,5.814-10.922,2.835-13.902C71.597,33.04,70.177,32.548,68.422,32.548 z"/><path fill="#eddc67" d="M35.387,74.902c-1.012,0-1.963-0.394-2.679-1.11c-0.745-0.744-1.138-1.733-1.109-2.785 c0.029-1.052,0.477-2.018,1.261-2.719l14.427-13.503l4.426,4.428L38.221,73.629C37.494,74.441,36.464,74.902,35.387,74.902 L35.387,74.902z"/><path fill="#472b29" d="M35.387,75.603c-1.198,0-2.325-0.468-3.174-1.315c-0.881-0.882-1.348-2.054-1.313-3.3 c0.034-1.245,0.564-2.39,1.494-3.221l14.91-13.955l5.384,5.386l-13.955,14.91C37.886,75.054,36.662,75.603,35.387,75.603z M47.271,55.759l-13.932,13.04c-0.651,0.583-1.017,1.37-1.039,2.227c-0.024,0.858,0.297,1.665,0.903,2.271 c1.206,1.206,3.35,1.146,4.497-0.135l13.04-13.934L47.271,55.759z"/><path fill="#a3a3cd" d="M69.564,74.902c-1.116,0-2.183-0.477-2.927-1.309L53.403,59.26l-0.396,0.209 c-0.676,0.362-1.336,0.527-1.999,0.527c-1.083,0-2.101-0.421-2.866-1.187L35.965,46.634c-3.942-3.944-4.076-10.275-0.4-14.379 l24.228,24.228l12.379,11.559c0.822,0.735,1.286,1.736,1.316,2.825c0.03,1.09-0.377,2.114-1.148,2.885 C71.598,74.493,70.612,74.902,69.564,74.902L69.564,74.902z"/><path fill="#472b29" d="M69.563,75.603c-1.314,0-2.571-0.563-3.448-1.543L53.254,60.131 c-1.948,1.009-4.165,0.618-5.606-0.825L35.47,47.129c-4.189-4.191-4.377-10.93-0.427-15.341l0.493-0.551l24.752,24.751 l12.36,11.542c0.952,0.852,1.503,2.033,1.539,3.317c0.035,1.285-0.445,2.492-1.354,3.399 C71.96,75.121,70.799,75.603,69.563,75.603z M53.553,58.391l13.599,14.728c1.201,1.343,3.434,1.396,4.692,0.139 c0.634-0.633,0.969-1.475,0.943-2.37c-0.024-0.896-0.409-1.721-1.083-2.323L59.315,56.995L35.612,33.293 c-2.957,3.849-2.641,9.356,0.848,12.846l12.178,12.177c1.029,1.03,2.593,1.312,4.04,0.537L53.553,58.391z"/><path fill="#eddc67" d="M69.564,74.902c-1.116,0-2.183-0.477-2.927-1.309l-10.931-11.84l4.699-4.699l11.767,10.987 c0.822,0.735,1.285,1.736,1.316,2.825c0.03,1.09-0.378,2.114-1.148,2.885C71.598,74.493,70.612,74.902,69.564,74.902 L69.564,74.902z"/><path fill="#472b29" d="M69.563 75.603c-1.314 0-2.571-.563-3.448-1.543l-11.38-12.326 5.652-5.652 12.261 11.448c.951.851 1.502 2.032 1.539 3.316.035 1.285-.445 2.492-1.354 3.4C71.96 75.12 70.799 75.603 69.563 75.603zM56.677 61.772l10.475 11.346c1.201 1.343 3.434 1.397 4.692.138.634-.633.969-1.475.943-2.37-.025-.896-.41-1.722-1.083-2.323L60.421 58.028 56.677 61.772zM50.94 58.165l-9.982-9.732c-.099-.096-.101-.254-.004-.354.096-.097.254-.101.354-.004l9.982 9.732L50.94 58.165zM39.996 47.395c-.063 0-.126-.023-.175-.071l-1.422-1.386c-.099-.096-.101-.254-.004-.354.096-.097.254-.102.354-.004l1.422 1.386c.099.096.101.254.004.354C40.126 47.369 40.062 47.395 39.996 47.395zM37.604 45.062c-.063 0-.126-.023-.175-.071-.712-.693-1.27-1.546-1.659-2.533-1.092-2.774-.515-5.68-.49-5.802.027-.137.162-.218.295-.195.136.028.223.16.195.295-.006.029-.571 2.886.465 5.519.363.922.883 1.715 1.544 2.359.099.096.101.254.004.354C37.733 45.036 37.669 45.062 37.604 45.062zM71.981 40.069c-.016 0-.032-.002-.05-.005-.135-.027-.223-.159-.195-.295.39-1.937.123-3.51-.752-4.43-.095-.1-.091-.258.01-.354.099-.096.258-.09.354.01.989 1.041 1.302 2.771.879 4.873C72.202 39.987 72.099 40.069 71.981 40.069zM70.335 44.255c-.043 0-.086-.011-.125-.033-.12-.069-.16-.223-.092-.342.516-.89.93-1.794 1.231-2.688.046-.13.188-.199.317-.157.131.045.201.187.157.317-.313.925-.741 1.859-1.272 2.777C70.505 44.21 70.421 44.255 70.335 44.255zM64.286 48.814c-.39 0-.748-.051-1.069-.129-2.837-.688-4.831-3.897-5.149-5.502-.027-.136.061-.268.196-.294.141-.029.268.062.294.196.288 1.45 2.184 4.485 4.777 5.114 1.978.479 3.952-.494 5.864-2.896.086-.108.243-.125.351-.04.108.086.126.243.04.351C67.589 48.13 65.724 48.814 64.286 48.814z"/><g><path fill="#472b29" d="M69.681,72.239c-1.051,0-1.971-1.12-2.011-1.17l-6.012-6.496c-0.094-0.102-0.088-0.26,0.014-0.354 c0.102-0.092,0.26-0.086,0.354,0.014l6.022,6.509c0.019,0.022,0.821,0.997,1.63,0.997c0.025,0,0.051-0.001,0.075-0.003 c0.368-0.028,0.694-0.281,0.97-0.753c0.069-0.121,0.224-0.16,0.342-0.09c0.119,0.069,0.159,0.223,0.09,0.342 c-0.364,0.622-0.822,0.959-1.364,1C69.754,72.238,69.717,72.239,69.681,72.239z"/></g><g><path fill="#472b29" d="M60.536,63.242c-0.067,0-0.134-0.027-0.184-0.08l-1.46-1.577c-0.094-0.102-0.088-0.26,0.014-0.354 c0.102-0.092,0.259-0.086,0.354,0.014l1.46,1.577c0.094,0.102,0.088,0.26-0.014,0.354C60.658,63.22,60.597,63.242,60.536,63.242z"/></g><g><path fill="#472b29" d="M35.703,72.239c-0.036,0-0.073-0.001-0.109-0.004c-0.542-0.041-1-0.378-1.364-1 c-0.069-0.119-0.029-0.272,0.09-0.342c0.117-0.07,0.271-0.031,0.342,0.09c0.275,0.472,0.602,0.725,0.97,0.753 c0.806,0.058,1.687-0.972,1.694-0.981l1.336-1.444c0.095-0.1,0.253-0.106,0.354-0.014c0.102,0.094,0.107,0.252,0.014,0.354 l-1.325,1.432C37.674,71.119,36.753,72.239,35.703,72.239z"/></g><g><path fill="#472b29" d="M40.528,67.91c-0.061,0-0.122-0.022-0.17-0.066c-0.102-0.094-0.107-0.252-0.014-0.354l5.779-6.245 c0.095-0.1,0.253-0.105,0.354-0.014c0.102,0.094,0.107,0.252,0.014,0.354l-5.779,6.245C40.662,67.883,40.596,67.91,40.528,67.91z"/></g></g><g><path fill="#fff" d="M44.405 23H34.5c-.276 0-.5-.224-.5-.5s.224-.5.5-.5h9.905c.276 0 .5.224.5.5S44.682 23 44.405 23zM47.5 23h-1c-.276 0-.5-.224-.5-.5s.224-.5.5-.5h1c.276 0 .5.224.5.5S47.777 23 47.5 23zM52.491 25H43.5c-.276 0-.5-.224-.5-.5s.224-.5.5-.5h8.991c.276 0 .5.224.5.5S52.767 25 52.491 25zM41.5 25h-1c-.276 0-.5-.224-.5-.5s.224-.5.5-.5h1c.276 0 .5.224.5.5S41.777 25 41.5 25zM38.5 25h-2c-.276 0-.5-.224-.5-.5s.224-.5.5-.5h2c.276 0 .5.224.5.5S38.777 25 38.5 25zM44.5 27h-2c-.276 0-.5-.224-.5-.5s.224-.5.5-.5h2c.276 0 .5.224.5.5S44.776 27 44.5 27zM47.5 18c-.177 0-.823 0-1 0-.276 0-.5.224-.5.5 0 .276.224.5.5.5.177 0 .823 0 1 0 .276 0 .5-.224.5-.5C48 18.224 47.776 18 47.5 18zM47.5 20c-.177 0-4.823 0-5 0-.276 0-.5.224-.5.5 0 .276.224.5.5.5.177 0 4.823 0 5 0 .276 0 .5-.224.5-.5C48 20.224 47.776 20 47.5 20zM52.5 22c-.177 0-2.823 0-3 0-.276 0-.5.224-.5.5 0 .276.224.5.5.5.177 0 2.823 0 3 0 .276 0 .5-.224.5-.5C53 22.224 52.776 22 52.5 22z"/></g></svg>